<svg id="Layer_1" data-name="Layer 1" xmlns="http://www.w3.org/2000/svg" viewBox="0 0 800 400"><defs><style>.cls-1{fill:#ca0e0e;}</style></defs><path class="cls-1" d="M569.94,153.19a8.33,8.33,0,0,0,2,2.18,5,5,0,0,0,3.06.91,7.54,7.54,0,0,0,3.65-.85l3.37-1.83a28.72,28.72,0,0,1,4.19-1.82,18,18,0,0,1,6-.85q4.85,0,7.43,2.86c1.72,1.91,2.59,4.91,2.59,9v3.34a82.33,82.33,0,0,0-18.55,2.17,39.74,39.74,0,0,0-11.84,4.85,17.62,17.62,0,0,0-6.27,6.52,15.66,15.66,0,0,0-1.83,7.18,19.78,19.78,0,0,0,1.39,7.68,14.7,14.7,0,0,0,3.94,5.58,17,17,0,0,0,6.07,3.37,25.62,25.62,0,0,0,7.81,1.13,31.59,31.59,0,0,0,6.27-.57,24.67,24.67,0,0,0,5.26-1.67,26.76,26.76,0,0,0,4.75-2.74,60.31,60.31,0,0,0,4.76-3.78L605.4,200a5.11,5.11,0,0,0,2.12,2.9,8.06,8.06,0,0,0,3.74.69h7.94V162.77a29.68,29.68,0,0,0-1.7-10.21,23.25,23.25,0,0,0-4.88-8,22.25,22.25,0,0,0-7.75-5.25,26.91,26.91,0,0,0-10.36-1.89,43.05,43.05,0,0,0-15,2.55,38.85,38.85,0,0,0-12.66,7.71Zm32.32,33.32a22.65,22.65,0,0,1-6.33,4.82,17.07,17.07,0,0,1-7.53,1.54,9.68,9.68,0,0,1-5.89-1.57c-1.41-1.05-2.11-2.84-2.11-5.35a6.34,6.34,0,0,1,1-3.5,8.79,8.79,0,0,1,3.53-2.87,25.59,25.59,0,0,1,6.7-2,80.39,80.39,0,0,1,10.59-1.1ZM537.7,109.67v93.91h17.38V109.67ZM476,153.19a8.33,8.33,0,0,0,2,2.18,5,5,0,0,0,3.06.91,7.54,7.54,0,0,0,3.65-.85l3.37-1.83a28.72,28.72,0,0,1,4.19-1.82,18,18,0,0,1,6-.85q4.85,0,7.43,2.86c1.72,1.91,2.58,4.91,2.58,9v3.34a82.31,82.31,0,0,0-18.54,2.17,39.74,39.74,0,0,0-11.84,4.85,17.62,17.62,0,0,0-6.27,6.52,15.66,15.66,0,0,0-1.83,7.18,19.78,19.78,0,0,0,1.39,7.68,14.79,14.79,0,0,0,3.93,5.58,17.06,17.06,0,0,0,6.08,3.37,25.62,25.62,0,0,0,7.81,1.13,31.59,31.59,0,0,0,6.27-.57,24.67,24.67,0,0,0,5.26-1.67,26.76,26.76,0,0,0,4.75-2.74,60.31,60.31,0,0,0,4.76-3.78l1.38,4.16a5.15,5.15,0,0,0,2.11,2.9,8.13,8.13,0,0,0,3.75.69h7.94V162.77a29.68,29.68,0,0,0-1.7-10.21,23.25,23.25,0,0,0-4.88-8,22.34,22.34,0,0,0-7.75-5.25,26.91,26.91,0,0,0-10.36-1.89,43.05,43.05,0,0,0-15,2.55,38.85,38.85,0,0,0-12.66,7.71Zm32.31,33.32a22.51,22.51,0,0,1-6.33,4.82,17,17,0,0,1-7.52,1.54,9.68,9.68,0,0,1-5.89-1.57c-1.41-1.05-2.11-2.84-2.11-5.35a6.34,6.34,0,0,1,1-3.5,8.79,8.79,0,0,1,3.53-2.87,25.59,25.59,0,0,1,6.7-2,80.41,80.41,0,0,1,10.58-1.1Zm-42-39.55A31.57,31.57,0,0,0,456.2,140a33.09,33.09,0,0,0-13-2.39,34.68,34.68,0,0,0-13.76,2.55,28.06,28.06,0,0,0-10,7,29.93,29.93,0,0,0-6.11,10.58A40.73,40.73,0,0,0,411.23,171a40.05,40.05,0,0,0,2.36,14.23A31.44,31.44,0,0,0,420,195.77a27.07,27.07,0,0,0,9.39,6.52,29.14,29.14,0,0,0,11.33,2.24,50,50,0,0,0,6.87-.48,32.36,32.36,0,0,0,6.83-1.7,30.25,30.25,0,0,0,6.52-3.34,29.54,29.54,0,0,0,5.92-5.32l-5-6.3a3.74,3.74,0,0,0-3.15-1.51,4.37,4.37,0,0,0-1.92.41,10.64,10.64,0,0,0-1.7,1c-.57.42-1.17.88-1.8,1.39a12.14,12.14,0,0,1-2.23,1.38,14.5,14.5,0,0,1-3,1,17.7,17.7,0,0,1-4.12.41A13,13,0,0,1,433,186.26q-4-5.3-4-15.24a36.2,36.2,0,0,1,.91-8.5,18.45,18.45,0,0,1,2.81-6.43,12.64,12.64,0,0,1,4.75-4.06,15,15,0,0,1,6.77-1.42,15.69,15.69,0,0,1,5.17.73,22.15,22.15,0,0,1,3.59,1.57c1,.57,1.9,1.09,2.67,1.58a4.57,4.57,0,0,0,2.43.72,3.64,3.64,0,0,0,2.14-.54,6.92,6.92,0,0,0,1.51-1.54Zm-63.11-26.14a34.3,34.3,0,0,0-11.88-7.08A44.41,44.41,0,0,0,376,111.18,35.2,35.2,0,0,0,363,113.45a29.51,29.51,0,0,0-9.6,6,24.87,24.87,0,0,0-5.92,8.5,25.14,25.14,0,0,0-2,9.89,27.52,27.52,0,0,0,1.8,10.64,21.92,21.92,0,0,0,4.69,7.18,23.42,23.42,0,0,0,6.61,4.66,60.66,60.66,0,0,0,7.62,3q3.92,1.26,7.62,2.3a38.48,38.48,0,0,1,6.62,2.49,14.5,14.5,0,0,1,4.69,3.59,8.43,8.43,0,0,1,1.79,5.61q0,6-3.62,9t-10.23,3a21.47,21.47,0,0,1-7.78-1.26,36.06,36.06,0,0,1-5.7-2.77q-2.46-1.51-4.35-2.78a6.57,6.57,0,0,0-3.59-1.25,4.68,4.68,0,0,0-2.39.66,5.46,5.46,0,0,0-1.83,1.67l-5.54,8.94a32.82,32.82,0,0,0,6.17,4.91,45.69,45.69,0,0,0,7.53,3.78,50.38,50.38,0,0,0,8.31,2.46,43.8,43.8,0,0,0,8.66.88,37.62,37.62,0,0,0,13.64-2.33,29.08,29.08,0,0,0,10.11-6.39,27.76,27.76,0,0,0,6.27-9.51,31.47,31.47,0,0,0,2.17-11.69,23.64,23.64,0,0,0-1.8-9.73,21,21,0,0,0-4.72-6.77,26.74,26.74,0,0,0-6.65-4.6,65.14,65.14,0,0,0-7.62-3.18q-3.9-1.35-7.62-2.49a42.6,42.6,0,0,1-6.64-2.58,15.65,15.65,0,0,1-4.73-3.43,7.2,7.2,0,0,1-1.79-5,9.78,9.78,0,0,1,3.27-7.65q3.28-2.92,9.83-2.93a19.56,19.56,0,0,1,6.49,1,36.18,36.18,0,0,1,4.91,2.11c1.43.75,2.68,1.46,3.75,2.11a5.8,5.8,0,0,0,3,1,3.94,3.94,0,0,0,2.36-.66,7.13,7.13,0,0,0,1.8-2.11Z"/><path class="cls-1" d="M544.61,230.83v63.75h41v-8.29H553.17V230.83Zm-18.42-2-31.84,44.44L463,228.8h-.09v65.78h8.29V254.46l23,32.1h.17l23.46-33.25v41.27h8.46V228.8ZM413.06,270.42l9.43-23.28,9.08,23.28Zm28,24.16H451l-27.86-66.4h-.53l-27.87,66.4h8.47L410,277.83h24.51Zm-53.61-63.75L370,263.63l-17.54-32.8H341.9l23.63,42.5v21.25h8.55V273.33l23.9-42.5Z"/><path class="cls-1" d="M295.32,222.65c-12.58,6.6-39.47,11.47-64.54,15.14l-13.86-13.87c17.55-2.39,37.75-5.38,54.12-9.18C281.06,217.07,289.65,219.68,295.32,222.65Z"/><path class="cls-1" d="M302.59,230.56v15.83c0,3.22-3.36,6.13-9,8.76s-13.51,5-22.57,7.07c-9.59-2.22-20.51-4.18-31.43-5.88l4.83-4.84C274.28,246.63,302.59,239.91,302.59,230.56Z"/><path class="cls-1" d="M295.31,159.34c-12.59,6.59-39.46,11.47-64.53,15.14l-13.86-13.86c17.55-2.4,37.75-5.39,54.12-9.19C281.06,153.76,289.64,156.38,295.31,159.34Z"/><path class="cls-1" d="M302.59,167.26v15.83c0,3.22-3.36,6.13-9,8.76s-13.51,5-22.57,7.06c-9.59-2.22-20.5-4.17-31.42-5.87l4.84-4.85C274.29,183.31,302.59,176.61,302.59,167.26Z"/><path class="cls-1" d="M302.59,167.26v47.48c0,2.88-2.68,5.51-7.27,7.91-12.58,6.6-39.47,11.47-64.54,15.14l-13.86-13.87-4.09-4.1L239.62,193l4.84-4.85C274.29,183.31,302.59,176.61,302.59,167.26Z"/><path class="cls-1" d="M302.59,104v47.48c0,2.89-2.69,5.52-7.28,7.91-12.59,6.59-39.46,11.47-64.53,15.14l-13.86-13.86L189,132.72C221.35,128,302.59,119.8,302.59,104Z"/><path class="cls-1" d="M302.59,230.56V278c0,10.84-38,18.11-72.36,23.13l-17.72-17.72,27.1-27.11,4.83-4.84C274.28,246.63,302.59,239.91,302.59,230.56Z"/><path class="cls-1" d="M208.34,225.05l-.37-.37-.34-.33-.9.91L188.4,243.58l-4.85,4.86-3,3,27.11,27.11,23.54-23.52,1.75-1.76,1.82-1.83Zm5.71,33.65H203.39v-16h3.15v12.94h7.51Z"/><path class="cls-1" d="M202.77,219.5h0L176,192.7l-.32.33h0l-26.78,26.79L176,246.93l20.29-20.28,6.83-6.83Zm-18.56,8.28h-3.15v-7.62l-5.21,7.4h0l-5-6.93v7.15h-3V211.15h0l8.09,11.48,8.3-11.48h0Z"/><polygon class="cls-1" points="209 189.24 205.85 189.24 207.46 185.36 209 189.24"/><polygon class="cls-1" points="207.46 185.36 209 189.24 205.85 189.24 207.46 185.36"/><path class="cls-1" d="M207.63,161.06l-27.11,27.11,27.11,27.11L208,215h0l23.2-23.2,3.57-3.58ZM211.28,195,210,191.89h-5.29L203.44,195h-3.1l7.21-16.6h.17l7.21,16.6Z"/><path class="cls-1" d="M202.77,156.2,176,129.41l-27.11,27.11L176,183.63l.25-.24,26.87-26.87Zm-25.2,4.5v5h-3.15v-5l-5.88-11h3.89l3.66,7.38,3.58-7.38h3.89Z"/></svg>