<svg id="Layer_1" data-name="Layer 1" xmlns="http://www.w3.org/2000/svg" xmlns:xlink="http://www.w3.org/1999/xlink" viewBox="0 0 400 400"><defs><style>.cls-1{fill:url(#linear-gradient);}.cls-2{fill:url(#linear-gradient-2);}.cls-3{fill:url(#linear-gradient-3);}.cls-4{fill:url(#linear-gradient-4);}.cls-5{fill:url(#linear-gradient-5);}.cls-6{fill:url(#linear-gradient-6);}.cls-7{fill:#ba0000;}.cls-8{fill:url(#linear-gradient-7);}.cls-9{fill:#fff;}</style><linearGradient id="linear-gradient" x1="-42" y1="-2780" x2="-41" y2="-2780" gradientTransform="matrix(97.57, 0, 0, -97.57, 4279.35, -271005.59)" gradientUnits="userSpaceOnUse"><stop offset="0" stop-color="#3e0b00"/><stop offset="0.13" stop-color="#3e0b00"/><stop offset="0.47" stop-color="#5f1318"/><stop offset="0.82" stop-color="#7f1620"/><stop offset="1" stop-color="#7f1620"/></linearGradient><linearGradient id="linear-gradient-2" y1="-2780" x2="-41" y2="-2780" gradientTransform="matrix(97.57, 0, 0, -97.57, 4279.35, -271077.68)" xlink:href="#linear-gradient"/><linearGradient id="linear-gradient-3" x1="-42" y1="-2780" x2="-41" y2="-2780" gradientTransform="matrix(102.22, 0, 0, -102.22, 4470.06, -283977.55)" gradientUnits="userSpaceOnUse"><stop offset="0" stop-color="#ba0000"/><stop offset="0.27" stop-color="#ca0e0e"/><stop offset="0.74" stop-color="#e3322f"/><stop offset="1" stop-color="#e3322f"/></linearGradient><linearGradient id="linear-gradient-4" x1="-42" y1="-2780" x2="-41" y2="-2780" gradientTransform="matrix(129.33, 0, 0, -129.33, 5581.51, -359411.54)" xlink:href="#linear-gradient-3"/><linearGradient id="linear-gradient-5" x1="-42" y1="-2780" x2="-41" y2="-2780" gradientTransform="matrix(102.59, 0, 0, -102.59, 4485.19, -284931.65)" xlink:href="#linear-gradient-3"/><linearGradient id="linear-gradient-6" x1="-42" y1="-2780" x2="-41" y2="-2780" gradientTransform="matrix(61.75, 0, 0, -61.75, 2733.43, -171409.02)" gradientUnits="userSpaceOnUse"><stop offset="0" stop-color="#ba0000"/><stop offset="1" stop-color="#ca0e0e"/></linearGradient><linearGradient id="linear-gradient-7" x1="-42" y1="-2780" x2="-41" y2="-2780" gradientTransform="matrix(61.75, 0, 0, -61.75, 2733.43, -171481.1)" xlink:href="#linear-gradient-6"/></defs><path class="cls-1" d="M279,226.92v18c0,3.67-3.82,7-10.22,10s-15.4,5.66-25.71,8.06c-10.92-2.53-23.35-4.76-35.79-6.7l5.5-5.51,0,0-15.58-15.59-15.79-15.8c20-2.72,43-6.13,61.64-10.45,11.41,2.65,21.19,5.63,27.65,9C276,220.64,279,223.64,279,226.92Z"/><path class="cls-2" d="M279,154.83v18c0,3.67-3.82,7-10.22,10s-15.4,5.66-25.71,8c-10.92-2.53-23.34-4.75-35.78-6.69l5.52-5.52-15.59-15.61-15.79-15.79c20-2.73,43-6.14,61.64-10.46,11.41,2.65,21.18,5.64,27.64,9C276,148.56,279,151.55,279,154.83Z"/><path class="cls-3" d="M279,154.83V208.9c0,3.28-3,6.28-8.28,9-14.32,7.51-45,13.06-73.5,17.24l-15.79-15.8-4.65-4.66,30.51-30.51,5.51-5.51C246.8,173.11,279,165.48,279,154.83Z"/><path class="cls-4" d="M279,82.74V136.8c0,3.29-3.06,6.29-8.29,9-14.34,7.51-44.94,13.06-73.49,17.24l-15.79-15.79-31.76-31.77C186.5,110.16,279,100.79,279,82.74Z"/><path class="cls-5" d="M279,226.92V281c0,12.34-43.27,20.62-82.4,26.33l-20.19-20.18,30.87-30.87,5.5-5.51C246.78,245.21,279,237.56,279,226.92Z"/><polygon class="cls-6" points="201.76 250.72 199.68 252.79 197.69 254.8 170.88 281.59 149.04 259.75 140.39 251.1 140.01 250.72 143.46 247.27 148.98 241.75 169.85 220.88 170.88 219.84 171.27 220.22 171.68 220.64 201.76 250.72"/><polygon class="cls-7" points="165.72 214.69 165.35 215.06 157.94 222.46 134.84 245.56 134.46 245.18 103.97 214.69 134.46 184.18 134.47 184.18 134.84 183.8 140.16 189.12 165.35 214.3 165.35 214.32 165.72 214.69"/><polygon class="cls-8" points="201.76 178.64 197.69 182.72 171.27 209.14 171.27 209.15 170.88 209.52 170.52 209.15 149.03 187.66 140.01 178.64 170.88 147.77 171.27 148.15 171.66 148.54 187.53 164.42 201.76 178.64"/><polygon class="cls-7" points="165.72 142.6 136.34 171.97 135.22 173.09 135.13 173.19 134.84 173.47 103.97 142.6 134.84 111.73 140.13 117.02 140.15 117.03 165.35 142.23 165.72 142.6"/><polygon class="cls-9" points="143.47 134.82 136.65 147.36 136.65 153.02 133.06 153.02 133.06 147.36 126.37 134.82 130.79 134.82 134.97 143.23 139.04 134.82 143.47 134.82"/><path class="cls-9" d="M173.63,182.88h-6l-1.49,3.55h-3.53l8.21-18.9H171l8.21,18.9H175Zm-1.19-3-1.75-4.42-1.83,4.42Z"/><polygon class="cls-9" points="144.21 204.81 144.21 223.74 140.63 223.74 140.63 215.07 134.69 223.5 134.65 223.5 128.94 215.61 128.94 223.74 125.47 223.74 125.47 204.81 125.5 204.81 134.72 217.88 144.16 204.81 144.21 204.81"/><polygon class="cls-9" points="169.64 240.76 169.64 255.5 178.19 255.5 178.19 258.96 166.05 258.96 166.05 240.76 169.64 240.76"/></svg>