<?xml version="1.0" encoding="UTF-8" standalone="no"?>
<svg
   width="256px"
   height="416px"
   viewBox="0 0 256 416"
   version="1.1"
   preserveAspectRatio="xMidYMid"
   id="svg26"
   sodipodi:docname="scala-seeklogo.com.svg"
   inkscape:version="1.1 (ce6663b3b7, 2021-05-25)"
   xmlns:inkscape="http://www.inkscape.org/namespaces/inkscape"
   xmlns:sodipodi="http://sodipodi.sourceforge.net/DTD/sodipodi-0.dtd"
   xmlns="http://www.w3.org/2000/svg"
   xmlns:svg="http://www.w3.org/2000/svg">
  <sodipodi:namedview
     id="namedview28"
     pagecolor="#ffffff"
     bordercolor="#666666"
     borderopacity="1.0"
     inkscape:pageshadow="2"
     inkscape:pageopacity="0.0"
     inkscape:pagecheckerboard="0"
     showgrid="false"
     inkscape:zoom="2.0288462"
     inkscape:cx="127.90521"
     inkscape:cy="208.24645"
     inkscape:window-width="1920"
     inkscape:window-height="1016"
     inkscape:window-x="1920"
     inkscape:window-y="27"
     inkscape:window-maximized="1"
     inkscape:current-layer="svg26" />
  <defs
     id="defs12">
    <linearGradient
       x1="0%"
       y1="50%"
       x2="100%"
       y2="50%"
       id="linearGradient-1">
      <stop
         stop-color="#4F4F4F"
         offset="0%"
         id="stop2" />
      <stop
         stop-color="#000000"
         offset="100%"
         id="stop4" />
    </linearGradient>
    <linearGradient
       x1="0%"
       y1="50%"
       x2="100%"
       y2="50%"
       id="linearGradient-2">
      <stop
         stop-color="#C40000"
         offset="0%"
         id="stop7" />
      <stop
         stop-color="#FF0000"
         offset="100%"
         id="stop9" />
    </linearGradient>
    <style
       id="style31">.cls-1{fill:#cb171e;}</style>
  </defs>
  <g
     id="g24">
    <path
       d="M0,288 L0,256 C0,250.606222 116.376889,241.571556 192.199111,224 L192.199111,224 C228.828444,232.490667 256,242.968889 256,256 L256,256 L256,288 C256,301.024 228.828444,311.509333 192.199111,320 L192.199111,320 C116.376889,302.424889 0,293.390222 0,288"
       fill="url(#linearGradient-1)"
       transform="translate(128.000000, 272.000000) scale(1, -1) translate(-128.000000, -272.000000) "
       id="path14" />
    <path
       d="M0,160 L0,128 C0,122.606222 116.376889,113.571556 192.199111,96 L192.199111,96 C228.828444,104.490667 256,114.968889 256,128 L256,128 L256,160 C256,173.024 228.828444,183.509333 192.199111,192 L192.199111,192 C116.376889,174.424889 0,165.390222 0,160"
       fill="url(#linearGradient-1)"
       transform="translate(128.000000, 144.000000) scale(1, -1) translate(-128.000000, -144.000000) "
       id="path16" />
    <path
       d="M0,224 L0,128 C0,136 256,152 256,192 L256,192 L256,288 C256,248 0,232 0,224"
       fill="url(#linearGradient-2)"
       transform="translate(128.000000, 208.000000) scale(1, -1) translate(-128.000000, -208.000000) "
       id="path18" />
    <path
       d="M0,96 L0,0 C0,8 256,24 256,64 L256,64 L256,160 C256,120 0,104 0,96"
       fill="url(#linearGradient-2)"
       transform="translate(128.000000, 80.000000) scale(1, -1) translate(-128.000000, -80.000000) "
       id="path20" />
    <path
       d="M0,352 L0,256 C0,264 256,280 256,320 L256,320 L256,416 C256,376 0,360 0,352"
       fill="url(#linearGradient-2)"
       transform="translate(128.000000, 336.000000) scale(1, -1) translate(-128.000000, -336.000000) "
       id="path22" />
  </g>
  <polygon
     id="L"
     points="395.638,422.735 395.638,250.125 347.442,250.125 347.442,469.647 512,469.647 512,422.737 512,422.735 "
     transform="matrix(0.43938869,0,0,0.41100718,19.729331,204.75108)"
     style="fill:#4400aa" />
  <polygon
     id="M"
     points="318.318,250.177 256.358,250.177 201.381,349.883 149.021,250.177 87.701,250.177 87.701,470.647 135.004,470.647 135.004,318.569 184.509,420.789 221.743,420.789 272.939,314.976 272.939,470.602 318.318,470.602 "
     transform="matrix(0.43938869,0,0,0.41100718,72.272801,94.542602)"
     style="fill:#006680" />
  <path
     id="A"
     class="cls-1"
     d="M 142.77932,165.20573 H 98.022751 l -9.10281,20.56023 H 69.100871 L 111.00977,93.310296 h 20.27207 l 40.20846,92.455664 h -21.17853 l -7.53288,-20.56023 z m -7.43445,-18.45874 -13.72035,-33.92864 -15.30699,33.92864 z"
     style="stroke-width:0.424961;fill:#88aa00" />
  <polygon
     id="Y"
     points="175.243,0 235.793,0 143.978,137.674 143.978,224.949 87.702,224.949 87.702,137.674 0,0 63.25,0 119.018,88.646 "
     transform="matrix(0.43938869,0,0,0.41100718,8.949146,22.008914)"
     style="fill:#ffcc00" />
</svg>
